<?xml version="1.0" encoding="UTF-8" standalone="no"?>
<svg
   class="arches-svg-node"
   version="1.1"
   viewBox="0 0 552.7 62.1"
   id="svg13"
   sodipodi:docname="diving.svg"
   inkscape:version="1.1 (c68e22c387, 2021-05-23)"
   xmlns:inkscape="http://www.inkscape.org/namespaces/inkscape"
   xmlns:sodipodi="http://sodipodi.sourceforge.net/DTD/sodipodi-0.dtd"
   xmlns="http://www.w3.org/2000/svg"
   xmlns:svg="http://www.w3.org/2000/svg">
  <defs
     id="defs17" />
  <sodipodi:namedview
     id="namedview15"
     pagecolor="#ffffff"
     bordercolor="#666666"
     borderopacity="1.0"
     inkscape:pageshadow="2"
     inkscape:pageopacity="0.0"
     inkscape:pagecheckerboard="0"
     showgrid="false"
     inkscape:zoom="1.9305228"
     inkscape:cx="276.35001"
     inkscape:cy="72.519214"
     inkscape:window-width="1280"
     inkscape:window-height="698"
     inkscape:window-x="-6"
     inkscape:window-y="-6"
     inkscape:window-maximized="1"
     inkscape:current-layer="svg13" />
  <path
     class="arches"
     fill="none"
     stroke="#ecf0f1"
     stroke-width="10"
     stroke-linecap="round"
     stroke-linejoin="round"
     stroke-miterlimit="10"
     d="   M505,55c0-27.6-22.4-50-50-50s-50,22.4-50,50c0-27.6-22.4-50-50-50s-50,22.4-50,50c0-27.6-22.4-50-50-50s-50,22.4-50,50   c0-27.6-22.4-50-50-50s-50,22.4-50,50c0-27.6-22.4-50-50-50S5,27.4,5,55"
     id="path9" />
  <path
     class="splash-lines"
     fill="none"
     stroke="#ecf0f1"
     stroke-width="6"
     stroke-linecap="round"
     stroke-linejoin="round"
     d="   M549.7,46.6l-21.8,12.6 M531.9,25.8l-12.6,21.8 M504.2,18.3v25.1 M476.4,25.8L489,47.6 M458.7,46.6l21.8,12.6"
     id="path11" />
</svg>
